<?xml version="1.0" encoding="utf-8"?>
<!-- Generator: Adobe Illustrator 24.0.1, SVG Export Plug-In . SVG Version: 6.00 Build 0)  -->
<svg version="1.1" id="Capa_3" xmlns="http://www.w3.org/2000/svg" xmlns:xlink="http://www.w3.org/1999/xlink" x="0px" y="0px"
	 viewBox="0 0 173.2 37.8" style="enable-background:new 0 0 173.2 37.8;" xml:space="preserve">
<style type="text/css">
	.st0{fill:#490CFD;}
	.st1{fill:#1D1717;}
</style>
<g>
	<path class="st0" d="M0,0v37.8h37.8V0H0z M18.9,33.7l-3.6-3.6l5.6-5.6l-2-1.9L13.6,28L10,24.4l5.4-5.4l-2.3-2.2l-5.4,5.5L4,18.6
		L18.1,4.3l3.6,3.6l-5.1,5.2l2.3,2.3l5.2-5.2l3.6,3.6l-5.2,5.2l2,1.9l5.4-5.5l3.6,3.6L18.9,33.7z"/>
	<g>
		<rect x="46.4" y="6.8" class="st1" width="6.2" height="24.1"/>
		<path class="st1" d="M66,12.9c-2.2,0-3.9,1.1-4.9,2.2L61,13.2h-5.1l0,0.4c0.1,1.5,0.1,3.3,0.1,5.4v11.9h5.8V20.8
			c0-0.5,0.1-0.9,0.2-1.2c0.1-0.4,0.7-1.7,2.2-1.7c1.5,0,2.2,1.1,2.2,3.3v9.8h5.8V20.5C72.3,15.7,69.9,12.9,66,12.9z"/>
		<path class="st1" d="M104.4,12.9c-6.3,0-9.2,4.9-9.2,9.4c0,5.6,3.7,9,9.7,9c2.4,0,4.6-0.4,6.5-1.1l0.3-0.1l-0.9-4.3l-0.4,0.1
			c-1.5,0.5-3,0.7-4.7,0.7c-2,0-4.1-0.7-4.5-2.5h11.2l0.1-0.3c0.1-0.5,0.2-1.3,0.2-2.1C112.6,17.4,110.4,12.9,104.4,12.9z
			 M104.1,17.1c2.2,0,2.6,1.9,2.7,2.7h-5.7C101.3,18.6,102.2,17.1,104.1,17.1z"/>
		<path class="st1" d="M133.9,13.2H127l-1.6,2.9c-0.3,0.6-0.7,1.3-1,1.9l-0.1,0.2c-0.1-0.3-0.3-0.5-0.4-0.8
			c-0.2-0.4-0.5-0.8-0.7-1.3l-1.8-3h-7l6.1,8.7l-6.2,9h6.9l1.8-3.2c0.1-0.3,0.3-0.5,0.4-0.8c0.2-0.4,0.4-0.8,0.6-1.2
			c0.3,0.7,0.7,1.4,1.1,2.1l1.9,3.2h7l-6.1-9.2L133.9,13.2z"/>
		<path class="st1" d="M144.4,12.9c-6.3,0-9.2,4.9-9.2,9.4c0,5.6,3.7,9,9.7,9c2.4,0,4.6-0.4,6.5-1.1l0.3-0.1l-0.9-4.3l-0.4,0.1
			c-1.5,0.5-3,0.7-4.7,0.7c-2,0-4.1-0.7-4.5-2.5h11.2l0.1-0.3c0.1-0.5,0.2-1.3,0.2-2.1C152.6,17.4,150.5,12.9,144.4,12.9z
			 M144.1,17.1c2.2,0,2.6,1.9,2.7,2.7h-5.7C141.4,18.6,142.2,17.1,144.1,17.1z"/>
		<path class="st1" d="M173.1,30.6c-0.1-1.1-0.1-3.1-0.1-5V5.6h-6.1v8.7c-1-0.9-2.5-1.4-4.3-1.4c-2.1,0-4,0.8-5.5,2.3
			c-1.7,1.7-2.6,4.2-2.6,7.1c0,5.3,3.3,9.1,7.7,9.1c2.1,0,3.9-0.8,5.1-2.2l0,1.9h5.7L173.1,30.6z M166.9,20.8V23
			c0,0.5,0,0.8-0.1,1.1c-0.3,1.3-1.4,2.3-2.8,2.3c-2,0-3.3-1.7-3.3-4.3c0-2.1,0.9-4.5,3.4-4.5c1.6,0,2.5,1.2,2.8,2.3
			C166.9,20.2,166.9,20.5,166.9,20.8z"/>
		<path class="st1" d="M92.9,25.5V5.6h-6.1v8.7c-1-0.9-2.5-1.4-4.3-1.4c-2.1,0-4,0.8-5.5,2.3c-1.7,1.7-2.6,4.2-2.6,7.1
			c0,5.3,3.3,9.1,7.7,9.1c2.1,0,4-0.8,5.1-2.2l0,1.9H93l0-0.4C92.9,29.4,92.9,27.4,92.9,25.5z M86.8,20.8V23c0,0.5,0,0.8-0.1,1.1
			c-0.3,1.3-1.4,2.3-2.8,2.3c-2,0-3.3-1.7-3.3-4.3c0-2.1,0.9-4.5,3.4-4.5c1.6,0,2.5,1.2,2.8,2.3C86.8,20.2,86.8,20.5,86.8,20.8z"/>
	</g>
</g>
</svg>
